<svg width="19" height="15" viewBox="0 0 19 15" fill="none" xmlns="http://www.w3.org/2000/svg">
<path d="M18.4453 6.3189H5.28989C4.93326 6.3189 4.77477 5.88583 5.01251 5.64961L8.81647 1.87008C9.05422 1.63386 9.05422 1.27953 8.81647 1.04331L7.94473 0.177165C7.70699 -0.0590551 7.35037 -0.0590551 7.11262 0.177165L0.178311 7.1063C-0.0594369 7.34252 -0.0594369 7.69685 0.178311 7.93307L7.11262 14.8228C7.35037 15.0591 7.70699 15.0591 7.94473 14.8228L8.77685 13.9961C9.0146 13.7598 9.0146 13.4055 8.77685 13.1693L4.97289 9.38976C4.73514 9.11417 4.89364 8.6811 5.25026 8.6811H18.4056C18.7226 8.6811 19 8.44488 19 8.12992V6.94882C19 6.63386 18.7623 6.3189 18.4453 6.3189Z" fill="#2B2F34"/>
</svg>
