<svg width="19" height="20" viewBox="0 0 19 20" fill="none" xmlns="http://www.w3.org/2000/svg">
<path d="M3.74174 2H15.2583C16.2192 2 17 2.7232 17 3.61329V5.39348C17 6.04714 16.5646 6.85379 16.1291 7.25711L12.3754 10.3307C11.8499 10.734 11.5045 11.5407 11.5045 12.1943V15.6713C11.5045 16.158 11.1592 16.7978 10.7237 17.0481L9.50751 17.7574C8.36637 18.4111 6.8048 17.674 6.8048 16.3806V12.097C6.8048 11.5268 6.45946 10.8036 6.0991 10.4002L2.78078 7.15975C2.34535 6.77034 2 6.03323 2 5.54646V3.69674C2 2.7232 2.78078 2 3.74174 2Z" stroke="#292D32" stroke-width="2.5" stroke-miterlimit="10" stroke-linecap="round" stroke-linejoin="round"/>
</svg>
