<svg width="25" height="25" viewBox="0 0 25 25" fill="none" xmlns="http://www.w3.org/2000/svg">
<path d="M9.05 24H15.95C21.7 24 24 21.7 24 15.95V9.05C24 3.3 21.7 1 15.95 1H9.05C3.3 1 1 3.3 1 9.05V15.95C1 21.7 3.3 24 9.05 24Z" fill="#D9D9D9" fill-opacity="0.01" stroke="#292D32" stroke-width="2" stroke-linecap="round" stroke-linejoin="round"/>
<path d="M19.5943 11.5633H9.16076C8.87792 11.5633 8.75221 11.2198 8.94077 11.0325L11.9577 8.03492C12.1463 7.84758 12.1463 7.56656 11.9577 7.37921L11.2663 6.69227C11.0778 6.50492 10.7949 6.50492 10.6064 6.69227L5.10675 12.1878C4.91819 12.3751 4.91819 12.6562 5.10675 12.8435L10.6064 18.3078C10.7949 18.4951 11.0778 18.4951 11.2663 18.3078L11.9263 17.6521C12.1148 17.4647 12.1148 17.1837 11.9263 16.9964L8.90935 13.9988C8.72079 13.7802 8.84649 13.4368 9.12933 13.4368H19.5629C19.8143 13.4368 20.0343 13.2494 20.0343 12.9996V12.0629C20.0343 11.8131 19.8457 11.5633 19.5943 11.5633Z" fill="#2B2F34"/>
</svg>
