<svg width="19" height="19" viewBox="0 0 19 19" fill="none" xmlns="http://www.w3.org/2000/svg">
<path fill-rule="evenodd" clip-rule="evenodd" d="M16.9595 7.6L18.2473 8.31545C19.2509 8.87297 19.2509 10.127 18.2473 10.6846L16.9595 11.4L18.2473 12.1154C19.2509 12.673 19.2509 13.927 18.2473 14.4846L10.5987 18.7338C9.95981 19.0887 9.04019 19.0887 8.40126 18.7338L0.752652 14.4846C-0.250884 13.927 -0.250884 12.673 0.752652 12.1154L2.04046 11.4L0.752652 10.6846C-0.250884 10.127 -0.250884 8.87297 0.752652 8.31545L2.04046 7.6L0.752652 6.88455C-0.250884 6.32703 -0.250884 5.07297 0.752652 4.51545L8.40126 0.266224C9.04019 -0.0887415 9.95981 -0.0887415 10.5987 0.266224L18.2473 4.51545C19.2509 5.07297 19.2509 6.32703 18.2473 6.88455L16.9595 7.6ZM15.0034 8.68676L10.5987 11.1338C9.95981 11.4887 9.04019 11.4887 8.40126 11.1338L3.99663 8.68676L2.5328 9.5L9.32398 13.2729C9.38907 13.309 9.61093 13.309 9.67602 13.2729L16.4672 9.5L15.0034 8.68676ZM15.0034 12.4868L10.5987 14.9338C9.95981 15.2887 9.04019 15.2887 8.40126 14.9338L3.99663 12.4868L2.5328 13.3L9.32398 17.0729C9.38907 17.109 9.61093 17.109 9.67602 17.0729L16.4672 13.3L15.0034 12.4868ZM9.67602 1.92712C9.61093 1.89096 9.38907 1.89096 9.32398 1.92712L2.5328 5.7L9.32398 9.47288C9.38907 9.50904 9.61093 9.50904 9.67602 9.47288L16.4672 5.7L9.67602 1.92712Z" fill="#333333"/>
</svg>
