<svg width="23" height="25" viewBox="0 0 23 25" fill="none" xmlns="http://www.w3.org/2000/svg">
<path d="M19.6667 11H3.33333C2.04467 11 1 12.0582 1 13.3636V21.6364C1 22.9418 2.04467 24 3.33333 24H19.6667C20.9553 24 22 22.9418 22 21.6364V13.3636C22 12.0582 20.9553 11 19.6667 11Z" stroke="#333333" stroke-width="0.81" stroke-linecap="round" stroke-linejoin="round"/>
<path d="M5 11V6.55556C5 5.08213 5.68482 3.66905 6.90381 2.62718C8.12279 1.58532 9.77609 1 11.5 1C13.2239 1 14.8772 1.58532 16.0962 2.62718C17.3152 3.66905 18 5.08213 18 6.55556V11" stroke="#333333" stroke-width="0.81" stroke-linecap="round" stroke-linejoin="round"/>
<path d="M11.5 14L11.5 21" stroke="#333333" stroke-linecap="round"/>
<path d="M15 17.5L8 17.5" stroke="#333333" stroke-linecap="round"/>
</svg>
