<svg width="24" height="28" viewBox="0 0 24 28" fill="none" xmlns="http://www.w3.org/2000/svg">
<path d="M1.98151 11.0162C1.84983 9.30439 3.20332 7.84277 4.92019 7.84277H19.1861C20.9031 7.84277 22.2565 9.30437 22.1249 11.0162L21.1046 24.2794C20.9865 25.8149 19.706 27.0007 18.1659 27.0007H5.94043C4.40033 27.0007 3.11988 25.8149 3.00175 24.2794L1.98151 11.0162Z" stroke="#333333" stroke-width="0.81"/>
<path d="M23.1053 5.4209H1" stroke="#333333" stroke-width="0.81" stroke-linecap="round"/>
<path d="M9.10547 2.47368C9.10547 1.6598 9.76524 1 10.5792 1H13.5265C14.3404 1 15.0002 1.6598 15.0002 2.47368V5.42105H9.10547V2.47368Z" stroke="#333333" stroke-width="0.81"/>
<path d="M15 13.7373V21.1057" stroke="#333333" stroke-width="1.81" stroke-linecap="round"/>
<path d="M9.10547 13.7373V21.1057" stroke="#333333" stroke-width="1.81" stroke-linecap="round"/>
</svg>
