<svg width="33" height="33" viewBox="0 0 33 33" fill="none" xmlns="http://www.w3.org/2000/svg">
<path d="M0 26.829C0 28.545 0.605 29.997 1.815 31.185C3.025 32.373 4.488 32.978 6.204 33H11.352L8.778 28.875H6.204C5.632 28.875 5.137 28.677 4.719 28.281C4.301 27.885 4.103 27.401 4.125 26.829V12.375H28.875V26.829C28.875 27.401 28.677 27.885 28.281 28.281C27.885 28.677 27.401 28.875 26.829 28.875H24.222L21.648 33H26.829C28.523 33 29.975 32.395 31.185 31.185C32.395 29.975 33 28.523 33 26.829V6.204C33 4.488 32.395 3.025 31.185 1.815C29.975 0.605 28.523 0 26.829 0H6.204C4.488 0 3.025 0.605 1.815 1.815C0.605 3.025 0 4.488 0 6.204L0 26.829ZM4.125 10.329V6.204C4.125 5.632 4.323 5.148 4.719 4.752C5.115 4.356 5.61 4.147 6.204 4.125H26.829C27.379 4.125 27.863 4.334 28.281 4.752C28.699 5.17 28.897 5.654 28.875 6.204V10.329H4.125ZM6.204 8.25H8.25V6.204H6.204V8.25ZM10.329 24.75L16.5 33L22.704 24.75H18.579V16.5H14.454V24.75H10.329ZM10.329 8.25H12.375V6.204H10.329V8.25ZM14.454 8.25H26.829V6.204H14.454V8.25Z" fill="#333333"/>
</svg>
