<svg width="213" height="64" viewBox="0 0 213 64" fill="none" xmlns="http://www.w3.org/2000/svg">
<path d="M0 1.87226C0.963802 1.25296 7.09773 0.466938 10.7392 0.540949C11.183 1.42849 16.8996 18.4672 20.3247 30.4511C20.946 27.2559 25.8797 5.95858 28.1351 0.540951C29.3776 0.274687 37.4542 1.25098 37.7205 1.96102C32.9262 19.4853 30.113 29.2528 24.7624 46.5156C22.1868 50.969 20.2241 52.8957 13.9344 53.2609C8.21757 52.8811 5.88232 52.1727 3.37266 49.977C3.44752 49.5015 5.76191 43.2094 6.5678 43.1429C10.4781 45.102 12.2279 45.6867 13.9344 45.0955C16.657 44.4637 17.66 42.5801 18.9046 37.6402H13.6014C8.08531 23.9187 5.09014 16.1069 0 1.87226Z" fill="#727271"/>
<path d="M40.7383 2.22727C40.7953 1.57733 41.0993 1.38169 41.9808 1.33973H49.9687C50.6414 1.51899 50.8257 1.79866 50.8563 2.58229V44.0305H63.8144V2.31603C63.9247 1.57332 64.1574 1.3396 64.8794 1.25098H73.0448C73.6975 1.41581 73.9079 1.67362 73.9323 2.49353V44.0305H77.305C78.0085 44.0935 78.251 44.3153 78.37 45.0955V62.9351C78.2789 63.6722 78.0642 63.9044 77.3937 64.0001C74.1986 64.0001 73.5773 64.0001 69.6721 64.0001C69.107 63.8603 68.9441 63.5991 68.9621 62.9351V52.1071H41.6258C40.9641 51.9974 40.7511 51.7478 40.7383 50.8645V2.22727Z" fill="#727271"/>
<path d="M95.4991 0.185787C106.061 -0.968007 110.41 3.55845 111.297 5.33354C110.031 8.36821 109.15 9.71407 107.303 11.5463L105.085 10.1263C101.712 7.37488 97.1854 7.10862 93.9903 10.1263C88.9313 14.0314 89.131 37.285 93.6352 42.4328C96.7416 45.9829 100.913 46.3379 107.747 42.4328C108.812 42.4328 111.564 47.758 111.564 48.5568C108.901 52.2845 101.534 54.1483 93.9903 52.7282C88.0455 50.9623 85.4932 48.9665 82.6297 43.2315C78.9021 35.3324 78.9021 19.0904 82.6297 10.8363C85.7798 4.41369 89.3751 1.42835 95.4991 0.185787Z" fill="#727271"/>
<path d="M115.825 1.25098H142.54C143.445 1.46079 143.474 1.82683 143.161 2.67104L141.652 8.08504C141.426 8.83165 141.168 9.09992 140.41 9.23885H124.878V21.4869C141.031 20.2444 146.889 25.3033 146.889 36.6639C146.889 46.7818 141.83 51.3083 131.179 52.0183H115.825C115.123 51.9006 114.89 51.6201 114.76 50.7758V2.31603C114.882 1.5534 115.128 1.33073 115.825 1.25098Z" fill="#727271"/>
<path d="M124.701 29.297C132.99 29.1329 136.8 29.7748 136.949 36.7523C136.746 42.9118 133.866 44.4041 124.701 44.2076V29.297Z" fill="white"/>
<path d="M157.541 41.5452L182.747 30.3621C184.181 29.664 184.921 29.6441 186.119 30.3621L211.681 41.7227C212.629 42.2965 212.69 42.6444 211.681 43.3203L185.942 55.0358C184.903 55.4929 184.287 55.502 183.102 55.0358L157.541 43.4977C156.31 42.686 156.309 42.2584 157.541 41.5452Z" fill="#F89C1D"/>
<path d="M158.072 0.185547H211.147C212.136 0.64774 212.509 1.02168 212.744 1.96063V26.2793C212.493 26.77 212.139 26.758 211.147 26.2793L185.763 15.0962C184.8 14.7195 184.237 14.7179 183.278 15.0962C172.138 19.9056 166.592 22.3906 157.184 26.6343H156.918C156.547 26.6409 156.403 26.5711 156.297 26.2793V1.96063C156.514 0.892903 156.926 0.520383 158.072 0.185547Z" fill="#F89C1D"/>
</svg>
