<svg width="28" height="26" viewBox="0 0 28 26" fill="none" xmlns="http://www.w3.org/2000/svg">
<path d="M14.4661 0.142122C14.6769 0.0250452 14.9256 -0.021829 15.17 0.00945737L16.2572 0.147325C16.5019 0.178839 16.7271 0.286783 16.8944 0.452781C17.0617 0.618779 17.1608 0.832573 17.1748 1.05777L17.2347 1.99943C17.2525 2.28368 17.3382 2.56093 17.4859 2.81169C17.6336 3.06246 17.8397 3.28065 18.0897 3.45094L18.4829 3.71757C20.15 4.68593 21.3629 6.1857 21.8857 7.92513L20.0161 9.63156L19.6442 9.2908C19.2485 8.92955 18.7786 8.64299 18.2615 8.44749C17.7444 8.25198 17.1902 8.15136 16.6305 8.15136C16.0708 8.15136 15.5166 8.25198 14.9995 8.44749C14.4824 8.64299 14.0126 8.92955 13.6168 9.2908C12.8175 10.0204 12.3685 11.0099 12.3685 12.0416C12.3685 13.0734 12.8175 14.0629 13.6168 14.7925L16.7602 17.6617C17.1616 18.0919 17.6607 18.4372 18.223 18.6737C18.7852 18.9102 19.3971 19.0322 20.0161 19.0313C20.8637 19.0342 21.6928 18.806 22.3972 18.3757C22.6252 18.831 22.9372 19.2472 23.3191 19.6061L23.7637 20.0236C24.0519 20.2951 24.2475 20.6372 24.3267 21.0083C24.4058 21.3793 24.3652 21.7634 24.2097 22.1138L24.1812 22.1788C24.0239 22.5337 23.7411 22.8304 23.3778 23.0217C23.0146 23.2131 22.5917 23.2881 22.1763 23.2349L18.2435 22.7303C18.0626 23.7361 17.4577 24.6373 16.5582 25.2412C15.6587 25.8452 14.536 26.1039 13.4302 25.962C12.3244 25.8201 11.3233 25.2889 10.6411 24.482C9.95886 23.6751 9.64961 22.6566 9.77949 21.6442L2.50809 20.7117C2.09252 20.6587 1.70828 20.4804 1.41652 20.2051C1.12475 19.9298 0.942212 19.5734 0.897928 19.1925L0.890803 19.1236C0.847138 18.7474 0.924238 18.3677 1.11272 18.0308C1.30119 17.6939 1.59292 17.4143 1.95237 17.226L2.50524 16.9346C3.06246 16.6426 3.54991 16.2516 3.9388 15.7847C4.32769 15.3178 4.61014 14.7845 4.76945 14.2163L6.49646 8.04999C6.83742 6.83034 7.51968 5.71247 8.47638 4.80593C9.43309 3.89939 10.6314 3.23527 11.9539 2.87866L12.4099 2.72258C12.7017 2.62186 12.9658 2.46406 13.1836 2.26027C13.4015 2.05647 13.5678 1.81162 13.671 1.54291L14.0129 0.651972C14.0949 0.439339 14.255 0.25918 14.4661 0.142122Z" fill="#333333"/>
<path d="M27.5687 9.62878C27.5729 10.0574 27.3991 10.4722 27.0882 10.7808L21.0897 16.5204C20.7654 16.8288 20.3301 17.001 19.8772 17C19.4236 17 18.987 16.8277 18.6662 16.5204L15.2381 13.2407C15.0842 13.0886 14.9625 12.9085 14.8801 12.7106C14.7976 12.5127 14.756 12.3009 14.7576 12.0872C14.7619 11.6573 14.9413 11.2466 15.2593 10.9434C15.5793 10.6377 16.0084 10.4649 16.4564 10.4613C16.9044 10.4577 17.3364 10.6236 17.6615 10.9242L19.8772 13.0422L24.6648 8.46295C24.9899 8.16238 25.4219 7.99646 25.8699 8.00006C26.3179 8.00366 26.747 8.17649 27.067 8.48224C27.385 8.78541 27.5644 9.19883 27.5687 9.6274V9.62878Z" fill="#333333"/>
</svg>
