<svg width="32" height="37" viewBox="0 0 32 37" fill="none" xmlns="http://www.w3.org/2000/svg">
<path d="M3.01142 15.8099C2.8416 13.7547 4.58707 12 6.80117 12H25.1987C27.4129 12 29.1583 13.7547 28.9886 15.8099L27.6727 31.7329C27.5205 33.5765 25.8691 35 23.883 35H8.11689C6.13075 35 4.47947 33.5765 4.32712 31.7329L3.01142 15.8099Z" stroke="#A4A4A4" stroke-width="3"/>
<path d="M30.0557 7.61133H2" stroke="#A4A4A4" stroke-width="3" stroke-linecap="round"/>
<path d="M12.2871 3.87038C12.2871 2.83741 13.1245 2 14.1575 2H17.8983C18.9313 2 19.7686 2.83741 19.7686 3.87038V7.61115H12.2871V3.87038Z" stroke="#A4A4A4" stroke-width="3"/>
<path d="M20 19V27" stroke="#A4A4A4" stroke-width="3.35" stroke-linecap="round"/>
<path d="M12 19V27" stroke="#A4A4A4" stroke-width="3.35" stroke-linecap="round"/>
</svg>
