<svg width="35" height="35" viewBox="0 0 35 35" fill="none" xmlns="http://www.w3.org/2000/svg">
<path fill-rule="evenodd" clip-rule="evenodd" d="M19.3185 0.951903L33.0889 14.7223C34.3581 15.9915 34.3581 18.0493 33.0889 19.3185L19.3185 33.0889C18.0493 34.3581 15.9915 34.3581 14.7223 33.0889L0.951903 19.3185C-0.317301 18.0493 -0.317301 15.9915 0.951903 14.7223L14.7223 0.951903C15.9915 -0.317301 18.0493 -0.317301 19.3185 0.951903ZM17.0204 21.4892C15.8597 21.4892 14.9892 22.3472 14.9892 23.4912C14.9892 24.6872 15.8333 25.5452 17.0204 25.5452C18.1811 25.5452 19.0517 24.6872 19.0517 23.5172C19.0517 22.3472 18.1811 21.4892 17.0204 21.4892ZM18.6454 8.89542H15.3954V18.6454H18.6454V8.89542Z" fill="#F9CC89"/>
</svg>
